<?xml version="1.0" encoding="UTF-8"?>
<svg id="_Шар_2" data-name="Шар 2" xmlns="http://www.w3.org/2000/svg" viewBox="0 0 16 16">
  <defs>
    <style>
      .cls-1 {
        fill: #fff;
        stroke-width: 0px;
      }
    </style>
  </defs>
  <g id="_Шар_1-2" data-name="Шар 1">
    <path class="cls-1" d="M3.65,1.33c-.23-.3-.66-.35-.95-.12-.02.02-.04.04-.06.06l-1.03,1.03c-.48.48-.66,1.17-.45,1.77.88,2.49,2.3,4.75,4.17,6.61,1.86,1.87,4.12,3.29,6.61,4.17.6.21,1.29.03,1.77-.45l1.03-1.03c.26-.26.27-.69,0-.96-.02-.02-.04-.04-.06-.06l-2.31-1.79c-.16-.13-.38-.17-.58-.12l-2.19.55c-.59.15-1.22-.03-1.66-.46l-2.46-2.46c-.43-.43-.61-1.06-.46-1.66l.55-2.19c.05-.2,0-.42-.12-.58l-1.79-2.31ZM1.88.51c.68-.68,1.79-.68,2.47,0,.05.05.1.11.14.16l1.79,2.31c.33.42.45.97.32,1.49l-.55,2.19c-.06.23.01.47.18.64l2.46,2.46c.17.17.41.24.64.18l2.19-.55c.52-.13,1.07-.01,1.49.31l2.31,1.79c.83.65.91,1.87.16,2.61l-1.03,1.03c-.74.74-1.85,1.07-2.88.7-2.64-.93-5.04-2.44-7.01-4.42C2.59,9.46,1.08,7.06.15,4.42c-.36-1.03-.04-2.14.7-2.88L1.88.51Z"/>
  </g>
</svg>