<?xml version="1.0" encoding="UTF-8"?>
<svg id="_Шар_2" data-name="Шар 2" xmlns="http://www.w3.org/2000/svg" viewBox="0 0 366.87 363.57">
  <defs>
    <style>
      .cls-1 {
        fill: #547d68;
        stroke-width: 0px;
      }
    </style>
  </defs>
  <g id="_Шар_2-2" data-name=" Шар 2">
    <g id="_Шар_1-2" data-name=" Шар 1-2">
      <path class="cls-1" d="M220.21,363.57v-126.8c10.79-1.02,20.38-1.92,33.05-3.12,2.92-15.41,5.91-31.2,9.29-49.08-19.26-.99-35.63-1.83-51.52-2.64-7.9-53.07-4.69-56.67,57.4-64.31v-38.98c-73.27-24.58-103.75,2.23-114.76,102.37-11.85,1.28-24.1,2.61-37.69,4.08v47.35c12.32,1.52,24.47,3.02,38.12,4.71v126.39C60.81,351.26-4.59,269.21.25,172.62,4.94,79.13,83.98,2.33,177.82.06c97.52-2.35,177.32,68.87,188.08,167.85,9.79,90.09-55.7,179.11-145.69,195.66Z"/>
    </g>
  </g>
</svg>