<?xml version="1.0" encoding="UTF-8"?>
<svg id="_Шар_2" data-name="Шар 2" xmlns="http://www.w3.org/2000/svg" viewBox="0 0 448.58 448.58">
  <defs>
    <style>
      .cls-1 {
        fill: #547d68;
      }

      .cls-1, .cls-2 {
        stroke-width: 0px;
      }

      .cls-2 {
        fill: #fff;
      }
    </style>
  </defs>
  <g id="_Шар_1-2" data-name=" Шар 1">
    <circle class="cls-1" cx="224.29" cy="224.29" r="224.29"/>
    <path class="cls-2" d="M224.04,368.6c-130.45-.03-143.74-13.29-143.84-143.58-.1-132.27,13.03-145.29,146.27-145.03,128.16.25,141.59,13.65,141.9,141.55v3.93c-.14,129.81-13.59,143.15-144.34,143.12h0ZM342.71,224.42c0-114.29-4.12-118.54-115.33-118.79-118.13-.26-121.6,3.18-121.51,120.46.09,112.59,4.27,116.76,117.27,116.85,115.58.09,119.57-3.86,119.57-118.52h0Z"/>
    <path class="cls-1" d="M342.71,224.43c0,114.66-4,118.61-119.57,118.52-113-.09-117.18-4.26-117.27-116.85-.09-117.27,3.39-120.72,121.51-120.46,111.2.25,115.34,4.5,115.33,118.79h0ZM297.45,224.01c-.13-41.22-30.44-72.14-71.48-72.93-42.89-.82-75.01,30.69-74.88,73.47.13,41.17,30.51,72.18,71.48,72.97,42.81.82,75.02-30.8,74.88-73.51h0Z"/>
    <path class="cls-2" d="M297.47,224c.14,42.7-32.08,74.33-74.88,73.51-40.98-.79-71.36-31.8-71.48-72.97-.13-42.78,31.99-74.3,74.88-73.47,41.04.79,71.35,31.71,71.48,72.93ZM272.29,224.11c-3.26-28.4-17.8-46.58-47.16-46.97-29.08-.38-45.92,16.28-48.08,45.31-2.06,27.7,20.62,50.66,48.3,49.18,29.33-1.57,43.8-19.03,46.93-47.52h.01Z"/>
    <path class="cls-1" d="M271.97,223.98c-3.13,28.49-17.6,45.95-46.93,47.52-27.68,1.48-50.36-21.48-48.3-49.18,2.16-29.03,18.99-45.69,48.08-45.31,29.36.39,43.9,18.57,47.16,46.97h-.01Z"/>
  </g>
</svg>