<svg width="1440" height="375" viewBox="0 0 1440 375" fill="none" xmlns="http://www.w3.org/2000/svg">
<path d="M189.935 100C62.2421 62.4 -32.1573 144.667 -63.3954 190.5V443.5H1808.47V209C1798.39 159.333 1746.56 49.6 1619.83 7.99999C1461.43 -44 1664.57 177 1472.31 200.5C1280.04 224 1354.41 153.5 1115.59 100C876.77 46.4999 789.706 177 631.299 200.5C472.892 224 349.552 147 189.935 100Z" fill="#F5F5F5"/>
<path d="M192.44 141.865C63.1795 108.793 -32.3785 181.153 -64 221.467V444H1830.84V237.739C1820.64 194.054 1768.17 97.5349 1639.89 60.9445C1479.54 15.2065 1685.18 209.593 1490.55 230.263C1295.93 250.933 1371.21 188.923 1129.46 141.865C887.704 94.8081 799.572 209.593 639.221 230.263C478.869 250.933 354.016 183.206 192.44 141.865Z" fill="#6EA187"/>
<path d="M198.822 191.447C66.3448 163.802 -31.5915 224.287 -64 257.985V444H1878V271.587C1867.55 235.071 1813.77 154.391 1682.29 123.805C1517.95 85.5726 1728.71 248.06 1529.24 265.338C1329.77 282.616 1406.93 230.782 1159.16 191.447C911.391 152.111 821.065 248.06 656.723 265.338C492.38 282.616 364.419 226.003 198.822 191.447Z" fill="#547D68"/>
</svg>
